<svg width="32" height="32" viewBox="0 0 32 32" fill="none" xmlns="http://www.w3.org/2000/svg">
<circle cx="16" cy="16" r="16" fill="#7B61FF"/>
<path d="M16.1641 15.55V16.0969C16.1641 16.8488 16.0661 17.5233 15.8702 18.1203C15.6742 18.7173 15.3939 19.2254 15.0293 19.6447C14.6693 20.064 14.2364 20.3853 13.7305 20.6086C13.2247 20.8273 12.6641 20.9367 12.0489 20.9367C11.4382 20.9367 10.8799 20.8273 10.3741 20.6086C9.87277 20.3853 9.43755 20.064 9.06841 19.6447C8.69927 19.2254 8.41216 18.7173 8.20708 18.1203C8.00656 17.5233 7.9063 16.8488 7.9063 16.0969V15.55C7.9063 14.798 8.00656 14.1258 8.20708 13.5334C8.4076 12.9364 8.69015 12.4282 9.05474 12.009C9.42388 11.5851 9.8591 11.2639 10.3604 11.0451C10.8663 10.8218 11.4245 10.7101 12.0352 10.7101C12.6504 10.7101 13.211 10.8218 13.7168 11.0451C14.2227 11.2639 14.6579 11.5851 15.0225 12.009C15.3871 12.4282 15.6674 12.9364 15.8633 13.5334C16.0639 14.1258 16.1641 14.798 16.1641 15.55ZM14.4483 16.0969V15.5363C14.4483 14.9803 14.3936 14.4904 14.2842 14.0666C14.1794 13.6382 14.0222 13.2805 13.8125 12.9933C13.6075 12.7017 13.3545 12.4829 13.0538 12.3371C12.753 12.1867 12.4135 12.1115 12.0352 12.1115C11.6569 12.1115 11.3197 12.1867 11.0235 12.3371C10.7273 12.4829 10.4743 12.7017 10.2647 12.9933C10.0596 13.2805 9.90239 13.6382 9.79302 14.0666C9.68364 14.4904 9.62895 14.9803 9.62895 15.5363V16.0969C9.62895 16.6529 9.68364 17.145 9.79302 17.5734C9.90239 18.0018 10.0619 18.3641 10.2715 18.6603C10.4857 18.952 10.7409 19.173 11.0372 19.3234C11.3334 19.4693 11.6706 19.5422 12.0489 19.5422C12.4317 19.5422 12.7712 19.4693 13.0674 19.3234C13.3637 19.173 13.6143 18.952 13.8194 18.6603C14.0245 18.3641 14.1794 18.0018 14.2842 17.5734C14.3936 17.145 14.4483 16.6529 14.4483 16.0969ZM24.3946 19.4396V20.8H19.1104V19.4396H24.3946ZM19.5958 10.8469V20.8H17.8799V10.8469H19.5958ZM23.7042 15.0031V16.343H19.1104V15.0031H23.7042ZM24.3604 10.8469V12.2141H19.1104V10.8469H24.3604Z" fill="white"/>
</svg>
