<svg width="11" height="11" viewBox="0 0 11 11" fill="none" xmlns="http://www.w3.org/2000/svg">
<path d="M10.0625 4.375H6.125V0.4375C6.125 0.21875 5.90625 0 5.6875 0H4.8125C4.56641 0 4.375 0.21875 4.375 0.4375V4.375H0.4375C0.191406 4.375 0 4.59375 0 4.8125V5.6875C0 5.93359 0.191406 6.125 0.4375 6.125H4.375V10.0625C4.375 10.3086 4.56641 10.5 4.8125 10.5H5.6875C5.90625 10.5 6.125 10.3086 6.125 10.0625V6.125H10.0625C10.2812 6.125 10.5 5.93359 10.5 5.6875V4.8125C10.5 4.59375 10.2812 4.375 10.0625 4.375Z" fill="#141417"/>
</svg>
