<svg width="24" height="24" viewBox="0 0 24 24" fill="none" xmlns="http://www.w3.org/2000/svg">
<path d="M19.75 16.7812V3.84375C19.75 3.38672 19.3633 3 18.9062 3H6.8125C5.23047 3 4 4.26562 4 5.8125V18.75C4 20.0156 4.98438 21 6.25 21H19.3281C19.5391 21 19.75 20.8242 19.75 20.5781V20.2969C19.75 20.0859 19.5391 19.875 19.3281 19.875H19.1875C19.0469 19.1719 19.082 18.1523 19.2227 17.5898C19.5039 17.4492 19.75 17.1328 19.75 16.7812ZM18.2031 19.875H6.25C5.61719 19.875 5.125 19.3828 5.125 18.75C5.125 18.1523 5.61719 17.625 6.25 17.625H18.2031C18.0977 18.293 18.0977 19.1719 18.2031 19.875ZM18.625 16.5H6.25C5.82812 16.5 5.44141 16.6406 5.125 16.8164V5.8125C5.125 4.89844 5.86328 4.125 6.8125 4.125H18.625V16.5Z" fill="#3F3F49"/>
</svg>
