<svg width="24" height="24" viewBox="0 0 24 24" fill="none" xmlns="http://www.w3.org/2000/svg">
<path d="M15.0039 13.125C13.9844 13.125 13.5273 13.6875 11.875 13.6875C10.1875 13.6875 9.73047 13.125 8.71094 13.125C6.10938 13.125 4 15.2695 4 17.8711V19.3125C4 20.2617 4.73828 21 5.6875 21H18.0625C18.9766 21 19.75 20.2617 19.75 19.3125V17.8711C19.75 15.2695 17.6055 13.125 15.0039 13.125ZM18.625 19.3125C18.625 19.6289 18.3438 19.875 18.0625 19.875H5.6875C5.37109 19.875 5.125 19.6289 5.125 19.3125V17.8711C5.125 15.8672 6.70703 14.25 8.71094 14.25C9.41406 14.25 10.082 14.8125 11.875 14.8125C13.6328 14.8125 14.3359 14.25 15.0039 14.25C17.0078 14.25 18.625 15.8672 18.625 17.8711V19.3125ZM11.875 12C14.3359 12 16.375 9.99609 16.375 7.5C16.375 5.03906 14.3359 3 11.875 3C9.37891 3 7.375 5.03906 7.375 7.5C7.375 9.99609 9.37891 12 11.875 12ZM11.875 4.125C13.7031 4.125 15.25 5.67188 15.25 7.5C15.25 9.36328 13.7031 10.875 11.875 10.875C10.0117 10.875 8.5 9.36328 8.5 7.5C8.5 5.67188 10.0117 4.125 11.875 4.125Z" fill="#3F3F49"/>
</svg>
