<svg width="24" height="24" viewBox="0 0 24 24" fill="none" xmlns="http://www.w3.org/2000/svg">
<path d="M18.3346 3.15283L3.53435 11.7143C2.77452 12.1457 2.84059 13.2739 3.63346 13.6057L8.29157 15.5304V18.9152C8.29157 19.9439 9.51391 20.3753 10.1416 19.612L12.1568 17.1564L16.3194 18.882C16.9471 19.1474 17.6739 18.7492 17.773 18.0524L19.8873 4.21471C20.0194 3.35193 19.0944 2.68826 18.3346 3.15283ZM9.34873 18.9152V15.995L11.1327 16.725L9.34873 18.9152ZM16.7489 17.9196L9.91035 15.0658L16.5176 7.26763C16.6828 7.06852 16.4185 6.80305 16.2203 6.96897L7.79603 14.2031L4.06293 12.6434L18.8632 4.04879L16.7489 17.9196Z" fill="#3F3F49"/>
</svg>
