<svg width="20" height="20" viewBox="0 0 20 20" fill="none" xmlns="http://www.w3.org/2000/svg">
<path d="M2 6.40002C2 5.07453 3.02335 4.00002 4.28571 4.00002H15.7143C16.9767 4.00002 18 5.07453 18 6.40002V13.6C18 14.9255 16.9767 16 15.7143 16H4.28571C3.02335 16 2 14.9255 2 13.6V6.40002Z" fill="#828292"/>
<path d="M4 13.75V12.5455V11.9116C4 11.8514 4.02175 11.7932 4.06124 11.7477L5.70598 9.85374C5.80565 9.73897 5.98383 9.73897 6.0835 9.85374L7.60072 11.6008C7.70039 11.7156 7.87856 11.7156 7.97823 11.6008L12.6533 6.21737C12.753 6.1026 12.9312 6.1026 13.0309 6.21737L15.9388 9.56586C15.9783 9.61134 16 9.66955 16 9.72978V13.75C16 13.8881 15.8881 14 15.75 14H4.25C4.11193 14 4 13.8881 4 13.75Z" fill="#E9E9EC"/>
<circle cx="6" cy="7.00002" r="2" fill="#E9E9EC"/>
</svg>
