<svg width="24" height="24" viewBox="0 0 24 24" fill="none" xmlns="http://www.w3.org/2000/svg">
<path d="M21.8984 10.7656L18.2422 5.70312C17.9258 5.28125 17.4336 5 16.8711 5H7.34375C6.78125 5 6.28906 5.28125 5.97266 5.70312L2.31641 10.7656C2.10547 11.0469 2 11.3984 2 11.75V16.8125C2 17.7617 2.73828 18.5 3.6875 18.5H20.5625C21.4766 18.5 22.25 17.7617 22.25 16.8125V11.75C22.25 11.3984 22.1094 11.0469 21.8984 10.7656ZM6.88672 6.37109C6.99219 6.23047 7.16797 6.16016 7.34375 6.125H16.8711C17.0469 6.125 17.2227 6.23047 17.3281 6.37109L20.4219 10.625H15.6406L14.5156 12.875H9.69922L8.57422 10.625H3.79297L6.88672 6.37109ZM21.125 12.3125V16.8125C21.125 17.1289 20.8438 17.375 20.5625 17.375H3.6875C3.37109 17.375 3.125 17.1289 3.125 16.8125V12.3125C3.125 12.0312 3.37109 11.75 3.6875 11.75H7.90625L9.03125 14H15.2188L16.3438 11.75H20.5625C20.8438 11.75 21.125 12.0312 21.125 12.3125Z" fill="#3F3F49"/>
</svg>
