<svg width="24" height="24" viewBox="0 0 24 24" fill="none" xmlns="http://www.w3.org/2000/svg">
<path d="M11.8881 19.875C11.2553 19.875 10.7631 19.3828 10.7631 18.75H9.63814C9.63814 20.0156 10.6225 21 11.8881 21C13.1186 21 14.1381 20.0156 14.1381 18.75H13.0131C13.0131 19.3828 12.4858 19.875 11.8881 19.875ZM19.2358 14.7773C18.2514 13.8633 17.5131 12.8789 17.5131 9.53906C17.5131 6.76172 15.2631 4.47656 12.4506 4.19531V3.5625C12.4506 3.28125 12.1694 3 11.8881 3C11.5717 3 11.3256 3.28125 11.3256 3.5625V4.19531C8.47799 4.47656 6.22799 6.76172 6.22799 9.53906C6.22799 12.8789 5.48971 13.8633 4.50533 14.7773C4.01314 15.2695 3.87252 15.9727 4.11861 16.6055C4.36471 17.2383 4.99752 17.625 5.70064 17.625H18.0756C18.7436 17.625 19.3764 17.2383 19.6225 16.6055C19.8686 15.9727 19.728 15.2695 19.2358 14.7773ZM18.0756 16.5H5.70064C5.1733 16.5 4.92721 15.9375 5.27877 15.5859C6.50924 14.4258 7.35299 13.125 7.35299 9.53906C7.35299 7.18359 9.39205 5.25 11.8881 5.25C14.3491 5.25 16.3881 7.18359 16.3881 9.53906C16.3881 13.125 17.2319 14.4258 18.4624 15.5859C18.8139 15.9375 18.5678 16.5 18.0756 16.5Z" fill="#3F3F49"/>
</svg>
