<svg width="20" height="20" viewBox="0 0 20 20" fill="none" xmlns="http://www.w3.org/2000/svg">
<path d="M15.0625 9.375H11.125V5.4375C11.125 5.21875 10.9062 5 10.6875 5H9.8125C9.56641 5 9.375 5.21875 9.375 5.4375V9.375H5.4375C5.19141 9.375 5 9.59375 5 9.8125V10.6875C5 10.9336 5.19141 11.125 5.4375 11.125H9.375V15.0625C9.375 15.3086 9.56641 15.5 9.8125 15.5H10.6875C10.9062 15.5 11.125 15.3086 11.125 15.0625V11.125H15.0625C15.2812 11.125 15.5 10.9336 15.5 10.6875V9.8125C15.5 9.59375 15.2812 9.375 15.0625 9.375Z" fill="white"/>
</svg>
