<svg width="24" height="24" viewBox="0 0 24 24" fill="none" xmlns="http://www.w3.org/2000/svg">
<path d="M17.9062 15.125H18.4688C18.6094 15.125 18.75 15.0195 18.75 14.8438V6.40625C18.75 6.26562 18.6094 6.125 18.4688 6.125H17.9062C17.7305 6.125 17.625 6.26562 17.625 6.40625V14.8438C17.625 15.0195 17.7305 15.125 17.9062 15.125ZM14.5312 15.125H15.0938C15.2344 15.125 15.375 15.0195 15.375 14.8438V9.78125C15.375 9.64062 15.2344 9.5 15.0938 9.5H14.5312C14.3555 9.5 14.25 9.64062 14.25 9.78125V14.8438C14.25 15.0195 14.3555 15.125 14.5312 15.125ZM7.78125 15.125H8.34375C8.48438 15.125 8.625 15.0195 8.625 14.8438V12.0312C8.625 11.8906 8.48438 11.75 8.34375 11.75H7.78125C7.60547 11.75 7.5 11.8906 7.5 12.0312V14.8438C7.5 15.0195 7.60547 15.125 7.78125 15.125ZM11.1562 15.125H11.7188C11.8594 15.125 12 15.0195 12 14.8438V7.53125C12 7.39062 11.8594 7.25 11.7188 7.25H11.1562C10.9805 7.25 10.875 7.39062 10.875 7.53125V14.8438C10.875 15.0195 10.9805 15.125 11.1562 15.125ZM20.7188 17.375H4.125V5.28125C4.125 5.14062 3.98438 5 3.84375 5H3.28125C3.10547 5 3 5.14062 3 5.28125V17.9375C3 18.2539 3.24609 18.5 3.5625 18.5H20.7188C20.8594 18.5 21 18.3945 21 18.2188V17.6562C21 17.5156 20.8594 17.375 20.7188 17.375Z" fill="#3F3F49"/>
</svg>
