<svg width="20" height="20" viewBox="0 0 20 20" fill="none" xmlns="http://www.w3.org/2000/svg">
<path d="M16.8906 16.0742L13.582 12.7656C13.5 12.7109 13.418 12.6562 13.3359 12.6562H12.9805C13.8281 11.6719 14.375 10.3594 14.375 8.9375C14.375 5.82031 11.8047 3.25 8.6875 3.25C5.54297 3.25 3 5.82031 3 8.9375C3 12.082 5.54297 14.625 8.6875 14.625C10.1094 14.625 11.3945 14.1055 12.4062 13.2578V13.6133C12.4062 13.6953 12.4336 13.7773 12.4883 13.8594L15.7969 17.168C15.9336 17.3047 16.1523 17.3047 16.2617 17.168L16.8906 16.5391C17.0273 16.4297 17.0273 16.2109 16.8906 16.0742ZM8.6875 13.3125C6.25391 13.3125 4.3125 11.3711 4.3125 8.9375C4.3125 6.53125 6.25391 4.5625 8.6875 4.5625C11.0938 4.5625 13.0625 6.53125 13.0625 8.9375C13.0625 11.3711 11.0938 13.3125 8.6875 13.3125Z" fill="#141417"/>
</svg>
