<svg width="24" height="24" viewBox="0 0 24 24" fill="none" xmlns="http://www.w3.org/2000/svg">
<path d="M20.4801 13.8064L18.9684 12.9626C19.1441 12.1189 19.1441 11.3103 18.9684 10.4665L20.4801 9.62276C20.6558 9.51729 20.7262 9.30635 20.6558 9.13057C20.2691 7.86494 19.6012 6.73994 18.7574 5.79073C18.6168 5.6501 18.4059 5.61494 18.2301 5.72041L16.7184 6.56416C16.0855 6.03682 15.3824 5.61494 14.609 5.33369V3.61104C14.609 3.43526 14.4684 3.25948 14.2574 3.22432C12.9566 2.90791 11.6559 2.94307 10.4254 3.22432C10.2144 3.25948 10.109 3.43526 10.109 3.61104V5.33369C9.30038 5.61494 8.59726 6.03682 7.96444 6.59932L6.45273 5.72041C6.27694 5.61494 6.06601 5.6501 5.92538 5.79073C5.08163 6.73994 4.41366 7.86494 4.02694 9.13057C3.95663 9.30635 4.02694 9.51729 4.20273 9.62276L5.71444 10.4665C5.57382 11.3103 5.57382 12.1189 5.71444 12.9626L4.20273 13.8064C4.02694 13.9118 3.95663 14.1228 4.02694 14.2985C4.41366 15.5642 5.08163 16.6892 5.92538 17.6384C6.06601 17.779 6.27694 17.8142 6.45273 17.7087L7.96444 16.8649C8.59726 17.3923 9.30038 17.8142 10.109 18.0954V19.8181C10.109 19.9938 10.2496 20.1696 10.4254 20.2399C11.7262 20.5212 13.0269 20.486 14.2574 20.2399C14.4684 20.1696 14.609 19.9938 14.609 19.8181V18.0954C15.3824 17.8142 16.0855 17.3923 16.7184 16.8649L18.2301 17.7087C18.4059 17.8142 18.6168 17.779 18.7574 17.6384C19.6363 16.6892 20.2691 15.5642 20.691 14.2985C20.7262 14.1228 20.6558 13.9118 20.4801 13.8064ZM12.359 14.5095C10.7769 14.5095 9.54648 13.279 9.54648 11.697C9.54648 10.1501 10.7769 8.88448 12.359 8.88448C13.9059 8.88448 15.1715 10.1501 15.1715 11.697C15.1715 13.279 13.9059 14.5095 12.359 14.5095Z" fill="#3E6DDA"/>
</svg>
